
        <svg xmlns="http://www.w3.org/2000/svg" xmlns:xlink="http://www.w3.org/1999/xlink" version="1.1" width="3162.2214791912943" 
        height="590.7682708227151" viewBox="0 0 3162.2214791912943 590.7682708227151">
			
			<g transform="scale(8.111073959564692) translate(10, 10)">
				<defs id="SvgjsDefs2988"></defs><g id="SvgjsG2989" featureKey="symbolFeature-0" transform="matrix(0.5870895684807216,0,0,0.5870895684807216,-4.78683064444669,-2.9370919659748544)" fill="#5398e9"><title xmlns="http://www.w3.org/2000/svg">06_07_18_5 Charity (Love home Dalat)</title><path xmlns="http://www.w3.org/2000/svg" d="M91.84644,6.15a1.14425,1.14425,0,0,0-1.68775-1.00988C83.34259,8.85547,72.97522,15.51038,72.341,15.21167c-6.54913-3.085-17.743-2.79034-27.61059-.20782-4.14459,1.08477-6.33142,1.701-9.64478,3.57989-3.58838,2.03467-5.90594,6.38416-10.82361,9.72577-5.01275,3.40631-.99218,8.84155,14.137-2.06305,7.65979-5.52106,26.04376.42792,13.55664,1.647-12.07532,1.1789-11.22657,9.658-4.8692,7.50452,5.66174-1.91791,9.42639,1.10461,19.37683-.582,6.55926-1.11182,9.045-2.08563,12.83636-6.1814.01325-.01428,6.01776-2.43817,10.83923-4.70068A2.9775,2.9775,0,0,0,91.8465,21.234Z"></path><path xmlns="http://www.w3.org/2000/svg" d="M61.601,73.75354c-7.65979,5.52106-26.04376-.42792-13.55664-1.647,12.07532-1.1789,11.22657-9.658,4.8692-7.50452-5.66174,1.91791-9.42639-1.10461-19.37683.582-6.55926,1.11182-9.045,2.08563-12.83636,6.1814-.01325.01428-6.01776,2.43817-10.83923,4.70068A2.9775,2.9775,0,0,0,8.1535,78.766L8.15356,93.85a1.14425,1.14425,0,0,0,1.68775,1.00988c6.8161-3.71539,17.18347-10.3703,17.81769-10.07159,6.54913,3.085,17.743,2.79034,27.61059.20782,4.14459-1.08477,6.33142-1.701,9.64478-3.57989,3.58838-2.03467,5.90594-6.38416,10.82361-9.72577C80.75073,68.28418,76.73016,62.84894,61.601,73.75354Z"></path><path xmlns="http://www.w3.org/2000/svg" d="M50,62.11212s13-8.305,13-17.24164a6.98254,6.98254,0,0,0-6.98248-6.9826c-2.567,0-4.80426,1.87781-6.01752,3.9414-1.21326-2.06359-3.4505-3.9414-6.01752-3.9414A6.98254,6.98254,0,0,0,37,44.87048C37,53.80713,50,62.11212,50,62.11212Z"></path></g><g id="SvgjsG2990" featureKey="nameFeature-0" transform="matrix(1.1307897177143191,0,0,1.1307897177143191,68.9999989215949,-2.5694733773564966)" fill="#5398e9"><path d="M22.68 12 l1.4 0 l0 27.96 l-7 0 l0 -13.16 l-2.28 13.16 l-5.6 0 l-2.48 -13.32 l0.28 13.32 l-7 0 l0 -27.96 l1.36 0 l5.64 0 l1.36 0 l3.64 15.56 l3.64 -15.56 l7.04 0 z M46.714 12.04 l7 0 l-6.84 18.8 l0 9.16 l-7 0 l0 -9.16 l-6.88 -18.8 l7 0 l3.36 10.84 z M80.828 18.16 l-11.2 0 l0 4.76 l9.8 0 l0 6.16 l-9.8 0 l0 10.92 l-7 0 l0 -28 l18.2 0 l0 6.16 z M102.30199999999999 12 l7 0 l0 22.08 c0 3.44 -2.44 5.88 -5.88 5.88 l-2.48 0 l-5.32 0 c-3.44 0 -5.88 -2.44 -5.88 -5.88 l0 -22.08 l7 0 l0 19.28 c0 1.4 0.6 1.68 1.68 1.68 l2.2 0 c1.08 0 1.68 -0.28 1.68 -1.68 l0 -19.28 z M130.81599999999997 12 l7 0 l0 27.96 l-7 0 l-5.6 -13.96 l0 13.96 l-7 0 l0 -27.96 l7 0 l5.6 14 l0 -14 z M160.45 12 c3.44 0 5.88 2.44 5.88 5.88 l0 16.24 c0 3.4 -2.44 5.84 -5.88 5.84 l-13.72 0 l0 -27.96 l13.72 0 z M159.32999999999998 31.28 l0 -10.6 c0 -1.4 -0.6 -1.68 -1.68 -1.68 l-3.92 0 l0 13.96 l3.92 0 c1.08 0 1.68 -0.28 1.68 -1.68 z M194.804 21.84 l-7 0 l0 -1.16 c0 -1.4 -0.6 -1.68 -1.68 -1.68 l-2.2 0 c-1.32 0 -1.68 0.36 -1.68 2.2 c0 2.6 12.56 0.8 12.56 7.8 l0 5.12 c0 3.4 -2.44 5.84 -5.88 5.84 l-2.48 0 l-5.32 0 c-3.44 0 -5.88 -2.44 -5.88 -5.84 l0 -3.96 l7 0 l0 1.12 c0 1.4 0.6 1.68 1.68 1.68 l2.2 0 c1.08 0 1.68 -0.28 1.68 -1.68 l-0.04 -0.52 c0 -2.16 -12.52 -0.76 -12.52 -7.76 l0 -5.12 c0 -3.44 2.44 -5.88 5.88 -5.88 l2.52 0 l5.28 0 c3.44 0 5.88 2.44 5.88 5.88 l0 3.96 z M203.718 12 l7 0 l0 27.96 l-7 0 l0 -27.96 z M238.95199999999997 12.04 l0 6.16 l-6.16 0 l0 21.8 l-7 0 l0 -21.8 l-6.16 0 l0 -6.16 l6.16 0 l13.16 0 z M266.066 18.16 l-11.2 0 l0 4.76 l9.8 0 l0 6.16 l-9.8 0 l0 4.76 l11.2 0 l0 6.16 l-18.2 0 l0 -28 l18.2 0 l0 6.16 z"></path></g>
			</g>
		</svg>
	